<?xml version="1.0" encoding="utf-8"?>
<!-- Generator: Adobe Illustrator 24.1.1, SVG Export Plug-In . SVG Version: 6.00 Build 0)  -->
<svg version="1.1" id="Layer_1" xmlns="http://www.w3.org/2000/svg" xmlns:xlink="http://www.w3.org/1999/xlink" x="0px" y="0px"
	 viewBox="0 0 400 400" style="enable-background:new 0 0 400 400;" xml:space="preserve">
<style type="text/css">
	.st0{fill:#F0D9B5;}
	.st1{fill:#B58863;}
	.st2{font-family:'MyriadPro-Regular';}
	.st3{font-size:12px;}
</style>
<rect class="st0" width="50" height="50"/>
<rect x="50" class="st1" width="50" height="50"/>
<rect x="100" class="st0" width="50" height="50"/>
<rect x="150" class="st1" width="50" height="50"/>
<rect x="200" class="st0" width="50" height="50"/>
<rect x="250" class="st1" width="50" height="50"/>
<rect x="300" class="st0" width="50" height="50"/>
<rect x="350" class="st1" width="50" height="50"/>
<rect y="50" class="st1" width="50" height="50"/>
<rect x="50" y="50" class="st0" width="50" height="50"/>
<rect x="100" y="50" class="st1" width="50" height="50"/>
<rect x="150" y="50" class="st0" width="50" height="50"/>
<rect x="200" y="50" class="st1" width="50" height="50"/>
<rect x="250" y="50" class="st0" width="50" height="50"/>
<rect x="350" y="50" class="st0" width="50" height="50"/>
<rect x="300" y="50" class="st1" width="50" height="50"/>
<rect y="100" class="st0" width="50" height="50"/>
<rect x="50" y="100" class="st1" width="50" height="50"/>
<rect x="100" y="100" class="st0" width="50" height="50"/>
<rect x="150" y="100" class="st1" width="50" height="50"/>
<rect x="200" y="100" class="st0" width="50" height="50"/>
<rect x="250" y="100" class="st1" width="50" height="50"/>
<rect x="300" y="100" class="st0" width="50" height="50"/>
<rect x="350" y="100" class="st1" width="50" height="50"/>
<rect y="150" class="st1" width="50" height="50"/>
<rect x="50" y="150" class="st0" width="50" height="50"/>
<rect x="100" y="150" class="st1" width="50" height="50"/>
<rect x="150" y="150" class="st0" width="50" height="50"/>
<rect x="200" y="150" class="st1" width="50" height="50"/>
<rect x="250" y="150" class="st0" width="50" height="50"/>
<rect x="350" y="150" class="st0" width="50" height="50"/>
<rect x="300" y="150" class="st1" width="50" height="50"/>
<rect y="200" class="st0" width="50" height="50"/>
<rect x="50" y="200" class="st1" width="50" height="50"/>
<rect x="100" y="200" class="st0" width="50" height="50"/>
<rect x="150" y="200" class="st1" width="50" height="50"/>
<rect x="200" y="200" class="st0" width="50" height="50"/>
<rect x="250" y="200" class="st1" width="50" height="50"/>
<rect x="300" y="200" class="st0" width="50" height="50"/>
<rect x="350" y="200" class="st1" width="50" height="50"/>
<rect y="250" class="st1" width="50" height="50"/>
<rect x="50" y="250" class="st0" width="50" height="50"/>
<rect x="100" y="250" class="st1" width="50" height="50"/>
<rect x="150" y="250" class="st0" width="50" height="50"/>
<rect x="200" y="250" class="st1" width="50" height="50"/>
<rect x="250" y="250" class="st0" width="50" height="50"/>
<rect x="350" y="250" class="st0" width="50" height="50"/>
<rect x="300" y="250" class="st1" width="50" height="50"/>
<rect y="300" class="st0" width="50" height="50"/>
<rect x="50" y="300" class="st1" width="50" height="50"/>
<rect x="100" y="300" class="st0" width="50" height="50"/>
<rect x="150" y="300" class="st1" width="50" height="50"/>
<rect x="200" y="300" class="st0" width="50" height="50"/>
<rect x="250" y="300" class="st1" width="50" height="50"/>
<rect x="300" y="300" class="st0" width="50" height="50"/>
<rect x="350" y="300" class="st1" width="50" height="50"/>
<rect y="350" class="st1" width="50" height="50"/>
<rect x="50" y="350" class="st0" width="50" height="50"/>
<rect x="100" y="350" class="st1" width="50" height="50"/>
<rect x="150" y="350" class="st0" width="50" height="50"/>
<rect x="200" y="350" class="st1" width="50" height="50"/>
<rect x="250" y="350" class="st0" width="50" height="50"/>
<rect x="350" y="350" class="st0" width="50" height="50"/>
<rect x="300" y="350" class="st1" width="50" height="50"/>
<text transform="matrix(1 0 0 1 39.2166 394)" class="st0 st2 st3">a</text>
<text transform="matrix(1 0 0 1 88.1722 394.0001)" class="st1 st2 st3">b</text>
<text transform="matrix(1 0 0 1 139.6242 394.0002)" class="st0 st2 st3">c</text>
<text transform="matrix(1 0 0 1 188.2319 394.0005)" class="st1 st2 st3">d</text>
<text transform="matrix(1 0 0 1 238.9878 393.9997)" class="st0 st2 st3">e</text>
<text transform="matrix(1 0 0 1 291.0277 394)" class="st1 st2 st3">f</text>
<text transform="matrix(1 0 0 1 338.2921 393.9997)" class="st0 st2 st3">g</text>
<text transform="matrix(1 0 0 1 388.3406 393.9996)" class="st1 st2 st3">h</text>
<text transform="matrix(1 0 0 1 391.8442 12.0439)" class="st0 st2 st3">8</text>
<text transform="matrix(1 0 0 1 391.844 62.0438)" class="st1 st2 st3">7</text>
<text transform="matrix(1 0 0 1 391.8438 112.0439)" class="st0 st2 st3">6</text>
<text transform="matrix(1 0 0 1 391.8435 162.0439)" class="st1 st2 st3">5</text>
<text transform="matrix(1 0 0 1 391.8433 212.0441)" class="st0 st2 st3">4</text>
<text transform="matrix(1 0 0 1 391.8435 262.0437)" class="st1 st2 st3">3</text>
<text transform="matrix(1 0 0 1 391.8438 312.0439)" class="st0 st2 st3">2</text>
<text transform="matrix(1 0 0 1 391.8433 362.0437)" class="st1 st2 st3">1</text>
</svg>
